<svg width="1440" height="4568" viewBox="0 0 1440 4568" fill="none" xmlns="http://www.w3.org/2000/svg">
<g clip-path="url(#clip0_973_14409)" filter="url(#filter0_n_973_14409)">
<rect width="1440" height="4568" fill="#373737"/>
<path opacity="0.7" d="M1273.56 4622C1406.99 4350.11 1478.33 4037.35 1494.26 3738.64C1513.95 3369.59 1449.1 3021.9 1312.38 2799.14C1239.28 2680.03 1163.67 2614.51 1103.64 2562.5C947.814 2427.49 897.704 2384.07 1276.24 1719.64C1538.62 1259.09 1692.73 952.669 1719.57 720.089C1746.46 486.953 1645.78 328.229 1398.5 163.528C1310.55 104.953 1240.11 30.654 1187.01 -54H1183.43C1236.93 31.9611 1308.13 107.377 1397.21 166.71C1643.28 330.598 1743.49 488.284 1716.81 719.569C1690.06 951.408 1536.12 1257.43 1273.99 1717.52C893.742 2384.96 944.436 2428.89 1102.08 2565.48C1161.95 2617.35 1237.36 2682.69 1310.18 2801.35C1446.48 3023.42 1511.12 3370.2 1491.48 3738.38C1475.54 4037.26 1404.04 4350.2 1270.26 4622H1273.56Z" fill="#474645"/>
<path d="M1045.32 4622C1175.88 4358.34 1248.3 4055.91 1268.04 3765.52C1293.09 3397.01 1233.3 3047.83 1099.85 2821.81C1028.49 2700.97 953.849 2633.64 894.586 2580.19C740.757 2441.47 691.289 2396.85 1079.42 1741.64C1348.46 1287.47 1506.99 984.813 1537.21 752.918C1567.49 520.467 1469.13 359.347 1224.28 188.729C1130.45 123.344 1057.21 40.198 1004.25 -54H1000.8C1054.1 41.4921 1128.05 125.75 1222.96 191.888C1466.6 361.665 1564.5 521.731 1534.46 752.33C1504.34 983.486 1345.97 1285.75 1077.2 1739.47C687.312 2397.64 737.36 2442.78 892.988 2583.14C952.094 2636.44 1026.54 2703.58 1097.63 2823.98C1230.67 3049.29 1290.25 3397.55 1265.26 3765.2C1245.51 4055.76 1172.92 4358.39 1042 4622H1045.32Z" fill="#474645"/>
<path opacity="0.7" d="M845.239 4622C973.006 4366.45 1046.38 4074.15 1069.7 3792.06C1100.11 3424.22 1045.41 3073.66 915.263 2844.47C845.68 2721.94 772.026 2652.83 713.549 2597.97C561.767 2455.56 512.954 2409.76 910.55 1764C1186.14 1316.39 1349.05 1017.59 1382.63 786.464C1416.29 554.783 1320.3 391.328 1077.97 214.85C978.391 142.33 902.775 49.9619 850.626 -54H847.316C899.733 51.2274 975.989 144.704 1076.6 217.973C1317.72 393.577 1413.28 555.969 1379.89 785.805C1346.42 1016.2 1183.68 1314.6 908.357 1761.78C508.965 2410.46 558.346 2456.8 711.912 2600.87C770.23 2655.59 843.69 2724.51 913.013 2846.59C1042.75 3075.06 1097.26 3424.7 1066.93 3791.68C1043.6 4073.96 970.049 4366.48 841.929 4622L845.239 4622Z" fill="#474645"/>
<path d="M1078.32 364.105C1278.84 531.766 1177.12 873.391 1176.04 877.006C1175.54 880.007 1164.7 945.441 1170.8 987.371C1173.74 1007.52 1133.48 1086.52 1072.07 1191.31C999.886 1314.51 898.392 1473.67 803.589 1614.7C661.026 1826.79 559.177 1797.93 453.751 1720.36C432.668 1704.85 411.549 1687.47 389.938 1669.69L378.668 1660.43C315.334 1608.48 259.752 1615.1 184.712 1624.05C100.754 1634.07 -7.44988 1646.97 -177.809 1584.61C-324.855 1530.78 -327.264 1411.1 -266.99 1263.69C-220.113 1149.04 -135.246 1017.64 -51.1846 887.487C-5.12374 816.167 40.7003 745.219 79.8608 677.663C100.987 641.217 121.555 605.133 141.635 569.902C238.1 400.653 323.391 251.014 401.113 183.327C462.96 129.466 519.929 127.218 573.725 207.587C643.213 311.397 721.961 304.761 809.477 297.384C891.511 290.468 981.208 282.908 1078.32 364.105ZM1173.64 876.559C1173.93 875.572 1276.7 533.661 1076.63 366.381C980.182 285.733 890.942 293.255 809.323 300.137C721.154 307.569 641.818 314.255 571.639 209.412C518.848 130.546 463.036 132.672 402.503 185.39C325.192 252.719 240.031 402.13 143.715 571.118C123.602 606.406 103.001 642.55 81.9295 678.899C42.7143 746.551 -3.12592 817.523 -49.2011 888.865C-133.179 1018.89 -217.96 1150.16 -264.723 1264.53C-324.361 1410.38 -322.036 1528.79 -176.727 1581.98C-6.84669 1644.16 101.061 1631.3 184.787 1621.31C260.355 1612.3 316.327 1605.63 380.341 1658.13L391.611 1667.4C413.264 1685.21 434.425 1702.62 455.329 1718C559.659 1794.77 660.463 1823.3 801.641 1613.28C896.392 1472.32 997.842 1313.23 1070.02 1190.06C1131.08 1085.85 1171.15 1007.56 1168.32 988.158C1162.02 944.846 1173.56 876.946 1173.6 876.75L1173.64 876.559Z" fill="#454545"/>
<path opacity="0.9" d="M1056.85 376.832C1242.69 533.816 1144.32 858.521 1143.35 861.72C1142.83 864.717 1132.13 926.666 1137.43 966.257C1139.98 985.329 1101.64 1060.54 1043.29 1160.37C974.701 1277.72 878.406 1429.4 788.529 1563.85C653.343 1766.09 558.45 1739.71 460.67 1667.21C441.118 1652.71 421.555 1636.45 401.536 1619.82L391.096 1611.15C332.436 1562.56 280.466 1569.36 210.298 1578.53C131.775 1588.8 30.573 1602.04 -127.989 1544.57C-264.883 1494.95 -266.013 1381.6 -208.316 1241.4C-163.452 1132.38 -82.9468 1007.14 -3.20397 883.085C40.4888 815.113 83.9558 747.494 121.167 683.152C141.244 648.437 160.795 614.07 179.881 580.517C271.576 419.325 352.65 276.809 425.893 211.971C484.197 160.357 537.462 157.692 586.985 233.336C650.906 330.973 724.513 323.953 806.316 316.147C883.019 308.83 966.886 300.83 1056.85 376.832ZM1141 861.299C1141.28 860.363 1240.46 535.635 1055.18 379.111C965.852 303.651 882.432 311.609 806.138 318.888C723.694 326.754 649.507 333.828 584.92 235.173C536.37 161.013 484.242 163.545 427.235 214.009C354.4 278.488 273.456 420.774 181.91 581.708C162.791 615.317 143.207 649.742 123.185 684.362C85.9194 748.8 42.4353 816.442 -1.27155 884.438C-80.93 1008.36 -161.351 1133.46 -206.1 1242.21C-263.16 1380.86 -262.097 1492.94 -126.902 1541.94C31.1902 1599.24 132.1 1586.04 210.398 1575.8C281.083 1566.56 333.439 1559.71 392.758 1608.86L403.199 1617.52C423.26 1634.19 442.863 1650.48 462.241 1664.85C558.952 1736.56 652.823 1762.63 786.631 1562.46C876.456 1428.08 972.707 1276.47 1041.28 1159.14C1099.28 1059.9 1137.44 985.392 1134.99 967.065C1129.5 926.096 1140.92 861.67 1140.96 861.486L1141 861.299Z" fill="#454545"/>
<path opacity="0.8" d="M1033.63 388.634C1205.63 535.287 1111.6 842.356 1110.4 846.267C1109.94 848.821 1099.37 907.659 1104 945.112C1106.23 963.136 1069.8 1034.55 1014.48 1129.41C949.467 1240.9 858.295 1385.06 773.258 1512.89C645.32 1705.21 556.911 1681.06 466.188 1613.32C448.048 1599.78 429.918 1584.58 411.365 1569.02L401.687 1560.92C347.336 1515.49 298.762 1522.34 233.182 1531.59C159.772 1541.95 65.161 1555.3 -82.4248 1502.29C-209.874 1456.52 -209.993 1349.36 -154.942 1216.32C-112.146 1112.9 -35.9358 993.857 39.551 875.943C80.9099 811.337 122.059 747.064 157.334 685.944C176.367 652.966 194.904 620.326 213.002 588.457C299.959 435.334 376.846 299.951 445.783 238.05C500.683 188.753 550.47 185.789 596.105 256.913C654.965 348.642 723.738 341.397 800.166 333.344C871.855 325.789 950.241 317.532 1033.63 388.634ZM1108.08 845.89C1108.35 845.003 1203.64 537.3 1031.96 390.918C949.201 320.35 871.253 328.562 799.967 336.073C722.906 344.193 653.566 351.496 594.059 258.759C549.367 189.105 500.7 191.926 447.087 240.066C378.551 301.604 301.797 436.76 214.987 589.624C196.858 621.549 178.287 654.247 159.308 687.13C123.978 748.347 82.8133 812.641 41.4394 877.272C-33.9633 995.053 -110.089 1113.96 -152.769 1217.11C-207.179 1348.59 -207.118 1454.49 -81.3319 1499.67C65.7941 1552.51 160.119 1539.2 233.305 1528.88C299.394 1519.55 348.347 1512.65 403.344 1558.62L413.022 1566.72C431.615 1582.31 449.783 1597.54 467.754 1610.96C557.435 1677.91 644.841 1701.77 771.405 1511.52C856.387 1383.77 947.517 1239.67 1012.52 1128.21C1067.49 1033.94 1103.73 963.22 1101.59 945.937C1096.81 907.242 1108.01 846.245 1108.04 846.069L1108.08 845.89Z" fill="#454545"/>
<path opacity="0.8" d="M1007.05 398.661C1167.89 536.531 1077.9 827.484 1076.94 830.582C1076.42 833.418 1066.34 888.712 1070.48 923.91C1072.49 940.942 1037.98 1008.58 985.648 1098.43C924.149 1204.02 837.963 1340.59 757.604 1461.72C636.67 1643.99 553.83 1621.58 469.021 1558.02C452.065 1545.31 435.132 1531.04 417.804 1516.43L408.762 1508.82C358.01 1466.19 312.426 1472.88 250.885 1481.92C181.974 1492.05 93.1616 1505.09 -45.0357 1455.72C-164.413 1413.06 -164.026 1311.83 -111.755 1185.89C-71.13 1088.02 0.908745 975.235 72.2627 863.521C111.357 802.315 150.252 741.425 183.623 683.541C201.631 652.302 219.172 621.39 236.295 591.212C318.575 446.192 391.323 317.974 456.283 259.187C508.041 212.346 554.782 209.311 597.281 276.307C652.046 362.636 716.571 355.475 788.281 347.518C855.569 340.05 929.144 331.886 1007.05 398.661ZM1074.65 830.196C1074.91 829.357 1165.7 538.366 1005.38 400.948C928.098 334.701 854.961 342.817 788.071 350.241C715.735 358.268 650.646 365.49 595.244 278.159C553.672 212.625 508.04 215.512 457.564 261.193C393.006 319.618 320.387 447.606 238.255 592.366C221.1 622.603 203.527 653.572 185.572 684.715C152.146 742.696 113.235 803.609 74.1272 864.838C2.85626 976.42 -69.097 1089.07 -109.607 1186.67C-161.236 1311.06 -161.671 1411.03 -43.9404 1453.09C93.8028 1502.31 182.331 1489.3 251.02 1479.21C313.068 1470.1 359.024 1463.35 410.414 1506.52L419.456 1514.13C436.824 1528.76 453.795 1543.07 470.583 1555.65C554.362 1618.45 636.21 1640.57 755.774 1460.35C836.079 1339.31 922.224 1202.8 983.71 1097.24C1035.7 1007.97 1070.02 941.037 1068.09 924.745C1063.79 888.219 1074.58 830.546 1074.61 830.382L1074.65 830.196Z" fill="#454545"/>
<path opacity="0.7" d="M982.178 409.596C1130.3 537.715 1044.93 811.188 1043.74 814.993C1043.28 817.391 1033.42 869.619 1037.01 902.738C1038.74 918.75 1006.15 982.599 956.82 1067.47C898.867 1167.18 817.737 1296.2 742.141 1410.65C628.341 1582.95 551.538 1562.53 473.227 1503.44C457.57 1491.63 441.951 1478.35 425.968 1464.76L417.632 1457.68C370.838 1418.02 328.454 1424.67 271.23 1433.65C207.133 1443.7 124.522 1456.66 -3.47695 1411.34C-114.078 1372.17 -112.929 1277 -63.3689 1158.2C-24.8618 1065.9 42.9434 959.34 110.103 853.795C146.898 795.971 183.503 738.448 214.954 683.793C231.929 654.294 248.464 625.107 264.606 596.613C342.176 459.683 410.761 338.616 471.573 282.851C520.056 238.393 563.529 235.171 602.508 297.838C652.685 378.508 712.664 371.276 779.321 363.237C841.898 355.69 910.317 347.44 982.178 409.596ZM1041.49 814.65C1041.73 813.858 1128.34 539.741 980.522 411.887C909.266 350.251 841.275 358.452 779.092 365.949C711.819 374.063 651.284 381.362 600.489 299.698C562.41 238.479 520.03 241.544 472.817 284.837C412.404 340.237 343.948 461.075 266.526 597.746C250.352 626.297 233.784 655.542 216.863 684.946C185.358 739.698 148.737 797.242 111.927 855.091C44.851 960.503 -22.869 1066.93 -61.2605 1158.95C-110.175 1276.21 -111.363 1370.12 -2.37699 1408.71C125.176 1453.88 207.507 1440.97 271.386 1430.95C329.107 1421.89 371.861 1415.19 419.278 1455.37L427.614 1462.45C443.636 1476.07 459.292 1489.38 474.785 1501.07C552.087 1559.4 627.918 1579.54 740.352 1409.31C815.894 1294.94 896.982 1165.98 954.923 1066.3C1003.91 982.016 1036.31 918.864 1034.65 903.591C1030.94 869.281 1041.41 814.985 1041.44 814.829L1041.49 814.65Z" fill="#454545"/>
<path d="M161.307 4656C36.2654 4408.44 -37.9117 4126.1 -64.5813 3852.27C-100.334 3485.21 -50.7424 3133.4 76.0443 2901.13C143.833 2776.95 216.468 2706.08 274.137 2649.82C423.826 2503.79 471.965 2456.82 65.0477 1820.73C-217.011 1379.81 -384.24 1084.98 -421.174 854.71C-458.194 623.883 -364.594 458.151 -124.876 275.878C-19.6703 195.886 57.8715 93.9102 108.513 -20H111.722C60.8666 95.1524 -17.2697 198.223 -123.46 278.965C-361.99 460.333 -455.164 624.994 -418.437 853.995C-381.621 1083.54 -214.575 1377.98 67.2025 1818.46C475.958 2457.43 427.26 2504.94 275.824 2652.68C218.311 2708.79 145.87 2779.46 78.3306 2903.19C-48.0637 3134.74 -97.4859 3485.63 -61.8174 3851.82C-35.126 4125.87 39.2372 4408.45 164.64 4656H161.307Z" fill="#474645"/>
<path d="M269.391 4678C147.009 4438.33 72.1711 4165.74 42.367 3900.12C1.28317 3533.99 45.7504 3181.05 169.137 2945.77C235.105 2819.98 306.699 2747.38 363.54 2689.75C511.075 2540.14 558.521 2492.03 142.426 1865.83C-145.995 1431.77 -317.484 1141.01 -357.759 911.669C-398.13 681.773 -306.956 513.816 -69.9332 325.816C40.7907 237.992 119.825 126.023 168.244 2H171.364C122.775 127.242 43.1965 240.297 -68.4675 328.863C-304.315 515.935 -395.081 682.807 -355.031 910.884C-314.881 1139.51 -143.579 1429.88 144.555 1863.51C562.528 2492.53 514.529 2541.21 365.268 2692.57C308.581 2750.05 237.181 2822.45 171.453 2947.78C48.4498 3182.33 4.13797 3534.34 45.1247 3899.62C74.9552 4165.47 149.975 4438.32 272.72 4678H269.391Z" fill="#474645"/>
<path opacity="0.8" d="M701.076 2935.11C891.599 2979.04 942.761 3256.65 943.306 3259.61C944.094 3262.16 959.555 3311.9 978.031 3339.01C986.971 3352.12 987.759 3422.51 983.506 3518.81C978.507 3631.98 966.615 3781.21 952.862 3915.26C932.165 4116.97 854.867 4134.25 758.322 4118.58C739.021 4115.45 719.068 4111.02 698.649 4106.49L687.999 4104.14C628.254 4090.99 593.875 4116.12 547.462 4150.04C495.491 4188.02 428.511 4236.98 294.421 4255.95C178.592 4272.33 135.519 4189.05 124.258 4063.16C115.505 3965.31 126.033 3841.7 136.46 3719.26C142.173 3652.18 147.859 3585.44 150.319 3523.55C151.646 3490.15 152.73 3457.22 153.788 3425.07C158.868 3270.59 163.36 3134 191.246 3057.76C213.464 2997.02 250.357 2974.4 313.799 3011.11C395.549 3058.4 445.207 3024.73 500.393 2987.32C552.177 2952.22 608.799 2913.83 701.076 2935.11ZM941.27 3260.28C941.12 3259.48 890.597 2981.49 700.698 2937.7C609.151 2916.6 552.866 2954.75 501.389 2989.65C445.721 3027.39 395.629 3061.34 312.928 3013.5C250.871 2977.6 214.821 2999.62 193.152 3058.86C165.44 3134.62 160.955 3270.97 155.884 3425.18C154.826 3457.39 153.739 3490.38 152.415 3523.68C149.951 3585.67 144.263 3652.43 138.548 3719.54C128.133 3841.84 117.617 3965.3 126.345 4062.87C137.468 4187.22 179.962 4269.48 294.192 4253.32C427.841 4234.41 494.606 4185.62 546.41 4147.75C593.205 4113.55 627.865 4088.22 688.361 4101.54L699.011 4103.89C719.476 4108.43 739.475 4112.86 758.585 4115.96C853.958 4131.44 930.32 4114.36 950.783 3914.92C964.526 3780.97 976.413 3631.81 981.41 3518.67C985.635 3423 984.988 3353.27 976.436 3340.72C957.263 3312.59 941.361 3260.59 941.316 3260.45L941.27 3260.28Z" fill="#424241"/>
<path opacity="0.9" d="M687.149 2954.77C863.296 2996.15 910.808 3257.31 911.467 3260.95C912.12 3263.11 926.464 3310.21 943.609 3335.85C951.898 3348.24 952.631 3414.67 948.691 3505.55C944.063 3612.31 933.052 3753.11 920.318 3879.57C901.151 4069.94 829.557 4086.25 740.138 4071.46C722.26 4068.51 703.784 4064.33 684.878 4060.06L675.02 4057.84C619.724 4045.44 587.902 4069.14 544.939 4101.13C496.816 4136.97 434.794 4183.16 310.631 4201.06C203.345 4216.53 163.447 4137.93 153.017 4019.11C144.912 3926.79 154.661 3810.16 164.315 3694.64C169.605 3631.35 174.869 3568.39 177.146 3510.01C178.376 3478.49 179.379 3447.42 180.358 3417.09C185.062 3271.34 189.222 3142.47 215.044 3070.53C235.631 3013.18 269.813 2991.82 328.591 3026.47C404.255 3071.07 450.22 3039.32 501.302 3004.04C549.257 2970.91 601.69 2934.69 687.149 2954.77ZM909.473 3261.63C909.333 3260.88 862.564 2998.66 686.777 2957.36C602.036 2937.45 549.932 2973.44 502.278 3006.36C450.724 3041.97 404.333 3074.02 327.737 3028.87C270.317 2995.02 236.962 3015.77 216.914 3071.62C191.262 3143.09 187.109 3271.72 182.414 3417.2C181.434 3447.59 180.429 3478.72 179.203 3510.13C176.922 3568.62 171.655 3631.61 166.363 3694.92C156.72 3810.3 146.984 3926.78 155.065 4018.82C165.36 4136.1 204.687 4213.68 310.406 4198.44C434.137 4180.6 495.949 4134.57 543.908 4098.85C587.244 4066.58 619.343 4042.67 675.376 4055.24L685.234 4057.46C704.185 4061.74 722.706 4065.92 740.396 4068.85C828.666 4083.44 899.342 4067.33 918.279 3879.24C931.003 3752.87 942.009 3612.15 946.636 3505.4C950.548 3415.15 949.951 3349.39 942.045 3337.56C924.283 3311.01 909.555 3261.94 909.513 3261.8L909.473 3261.63Z" fill="#424241"/>
<path opacity="0.8" d="M668.28 2981.39C833.859 3020.15 878.377 3264.99 878.893 3267.83C879.625 3270.24 893.034 3313.98 909.049 3337.84C916.84 3349.45 917.533 3411.6 913.834 3496.61C909.49 3596.47 899.154 3728.16 887.2 3846.43C869.201 4024.55 801.973 4039.81 718.004 4025.98C701.215 4023.21 683.872 4019.3 666.125 4015.31L656.875 4013.23C604.991 4001.64 575.13 4023.8 534.812 4053.71C489.636 4087.24 431.411 4130.44 314.848 4147.19C214.095 4161.66 176.626 4088.12 166.832 3976.94C159.223 3890.58 168.375 3781.5 177.438 3673.45C182.402 3614.26 187.343 3555.38 189.482 3500.77C190.635 3471.29 191.577 3442.24 192.496 3413.88C196.911 3277.54 200.817 3157 225.061 3089.71C244.4 3036.03 276.512 3016.03 331.725 3048.46C402.722 3090.16 445.856 3060.48 493.791 3027.48C538.813 2996.49 588.042 2962.61 668.28 2981.39ZM876.9 3268.5C876.769 3267.79 832.876 3022.59 667.909 2983.97C588.387 2965.36 539.487 2999.01 494.765 3029.79C446.357 3063.11 402.8 3093.09 330.872 3050.85C277.013 3019.21 245.728 3038.61 226.927 3090.8C202.851 3157.63 198.954 3277.92 194.547 3413.98C193.627 3442.41 192.684 3471.52 191.533 3500.9C189.392 3555.6 184.449 3614.51 179.482 3673.73C170.429 3781.63 161.29 3890.57 168.875 3976.65C178.534 4086.29 215.433 4158.83 314.623 4144.58C430.753 4127.9 488.768 4084.85 533.782 4051.44C574.473 4021.25 604.612 3998.89 657.228 4010.64L666.479 4012.72C684.272 4016.73 701.659 4020.64 718.261 4023.38C801.083 4037.02 867.396 4021.95 885.164 3846.11C897.109 3727.92 907.438 3596.3 911.782 3496.47C915.453 3412.08 914.897 3350.58 907.487 3339.55C890.811 3314.7 876.983 3268.8 876.944 3268.67L876.9 3268.5Z" fill="#424241"/>
<path opacity="0.7" d="M652.377 3013.99C804.904 3049.78 846.125 3275.46 846.757 3278.94C847.361 3280.93 859.761 3321.56 874.572 3343.67C881.773 3354.42 882.417 3411.92 879.004 3490.56C874.995 3582.92 865.457 3704.71 854.428 3814.1C837.813 3978.91 775.752 3993.02 698.238 3980.22C682.741 3977.66 666.74 3974.05 650.367 3970.36L641.83 3968.43C593.98 3957.72 566.435 3978.21 529.246 4005.87C487.557 4036.87 433.826 4076.84 326.259 4092.32C233.246 4105.71 198.655 4037.67 189.613 3934.8C182.592 3854.93 191.037 3754.04 199.399 3654.1C203.98 3599.36 208.539 3544.9 210.512 3494.41C211.577 3467.14 212.446 3440.28 213.293 3414.05C217.368 3287.95 220.972 3176.46 243.347 3114.21C261.209 3064.52 290.864 3046.01 341.852 3076.03C407.331 3114.57 447.118 3087.13 491.333 3056.62C532.885 3027.96 578.318 2996.61 652.377 3013.99ZM844.797 3279.62C844.677 3278.96 804.185 3052.24 652.011 3016.54C578.658 2999.32 533.548 3030.44 492.293 3058.91C447.612 3089.73 407.407 3117.47 341.011 3078.38C291.358 3049.15 262.516 3067.07 245.185 3115.29C222.976 3177.08 219.379 3288.32 215.314 3414.15C214.466 3440.44 213.594 3467.37 212.533 3494.53C210.557 3545.13 205.995 3599.61 201.412 3654.38C193.06 3754.17 184.628 3854.91 191.626 3934.51C200.535 4035.87 234.563 4102.91 326.038 4089.74C433.179 4074.32 486.702 4034.51 528.231 4003.62C565.787 3975.69 593.605 3955 642.179 3965.88L650.715 3967.8C667.134 3971.51 683.178 3975.13 698.491 3977.65C774.874 3990.27 836.034 3976.34 852.422 3813.78C863.443 3704.47 872.975 3582.75 876.982 3490.42C880.368 3412.4 879.86 3355.55 873.033 3345.35C857.636 3322.36 844.873 3279.9 844.836 3279.78L844.797 3279.62Z" fill="#424241"/>
<path opacity="0.6" d="M648.145 3056.55C788.337 3089.18 826.094 3295.19 826.579 3297.84C827.25 3300.04 838.574 3336.71 852.087 3356.73C858.708 3366.54 859.302 3418.91 856.169 3490.53C852.49 3574.61 843.738 3685.5 833.616 3785.1C818.361 3935.21 761.381 3948.07 690.209 3936.41C675.982 3934.08 661.3 3930.79 646.278 3927.43L638.443 3925.68C594.558 3915.93 569.286 3934.57 535.172 3959.75C496.909 3987.98 447.593 4024.37 348.869 4038.47C263.461 4050.67 231.701 3988.69 223.399 3894.98C216.955 3822.25 224.704 3730.39 232.379 3639.41C236.583 3589.57 240.766 3539.99 242.576 3494.02C243.553 3469.19 244.351 3444.73 245.128 3420.85C248.868 3306.04 252.176 3204.53 272.714 3147.84C289.123 3102.55 316.364 3085.68 363.199 3113.03C423.257 3148.11 459.755 3123.13 500.315 3095.37C538.455 3069.26 580.159 3040.72 648.145 3056.55ZM824.647 3298.48C824.536 3297.89 787.387 3091.53 647.786 3059.03C580.494 3043.37 539.108 3071.69 501.259 3097.6C460.242 3125.67 423.334 3150.93 362.372 3115.33C316.85 3088.74 290.411 3105.04 274.523 3148.89C254.149 3205.13 250.848 3306.41 247.117 3420.95C246.338 3444.89 245.539 3469.41 244.565 3494.14C242.752 3540.21 238.565 3589.81 234.36 3639.67C226.696 3730.52 218.959 3822.24 225.38 3894.71C233.551 3986.93 264.759 4047.94 348.652 4035.96C446.957 4021.91 496.069 3985.67 534.174 3957.56C568.65 3932.12 594.188 3913.27 638.786 3923.18L646.621 3924.93C661.688 3928.31 676.412 3931.6 690.458 3933.9C760.517 3945.38 816.611 3932.7 831.643 3784.78C841.755 3685.27 850.501 3574.45 854.179 3490.39C857.287 3419.37 856.824 3367.63 850.573 3358.37C836.438 3337.43 824.722 3298.76 824.689 3298.65L824.647 3298.48Z" fill="#424241"/>
<path opacity="0.5" d="M625.862 3125.96C744.308 3154.27 776.45 3332.57 777.041 3335.88C777.58 3337.69 787.186 3369.67 798.637 3387.09C804.256 3395.64 804.765 3441.22 802.109 3503.54C798.994 3576.68 791.58 3673.13 783.007 3759.77C770.079 3890.42 721.787 3901.6 661.468 3891.46C649.414 3889.43 636.98 3886.57 624.258 3883.65L617.622 3882.12C580.475 3873.65 559.08 3889.86 530.197 3911.75C497.784 3936.31 456.008 3967.97 372.376 3980.23C299.986 3990.85 273.067 3936.9 266.032 3855.35C260.573 3792.08 267.138 3712.17 273.638 3633.02C277.198 3589.67 280.741 3546.55 282.275 3506.56C283.103 3484.97 283.778 3463.69 284.437 3442.92C287.605 3343.04 290.407 3254.74 307.807 3205.41C321.722 3165.97 344.821 3151.28 384.533 3175.09C435.371 3205.59 466.271 3183.87 500.61 3159.73C532.923 3137.02 568.258 3112.19 625.862 3125.96ZM775.28 3336.51C775.186 3335.99 743.731 3156.54 625.534 3128.29C568.562 3114.67 533.519 3139.3 501.472 3161.82C466.716 3186.25 435.441 3208.24 383.778 3177.25C345.266 3154.15 322.898 3168.3 309.459 3206.4C292.208 3255.3 289.413 3343.39 286.253 3443.01C285.593 3463.84 284.916 3485.17 284.091 3506.67C282.555 3546.75 279.009 3589.9 275.447 3633.27C268.957 3712.29 262.403 3792.07 267.841 3855.09C274.757 3935.25 301.172 3988.29 372.178 3977.88C455.428 3965.66 497.018 3934.15 529.286 3909.69C558.498 3887.56 580.139 3871.16 617.936 3879.78L624.572 3881.31C637.334 3884.24 649.807 3887.11 661.697 3889.11C720.999 3899.09 768.481 3888.07 781.206 3759.47C789.771 3672.91 797.179 3576.52 800.294 3503.41C802.925 3441.65 802.538 3396.67 797.255 3388.63C785.268 3370.4 775.348 3336.76 775.32 3336.67L775.28 3336.51Z" fill="#424241"/>
</g>
<defs>
<filter id="filter0_n_973_14409" x="0" y="0" width="1440" height="4568" filterUnits="userSpaceOnUse" color-interpolation-filters="sRGB">
<feFlood flood-opacity="0" result="BackgroundImageFix"/>
<feBlend mode="normal" in="SourceGraphic" in2="BackgroundImageFix" result="shape"/>
<feTurbulence type="fractalNoise" baseFrequency="2 2" stitchTiles="stitch" numOctaves="3" result="noise" seed="7660" />
<feColorMatrix in="noise" type="luminanceToAlpha" result="alphaNoise" />
<feComponentTransfer in="alphaNoise" result="coloredNoise1">
<feFuncA type="discrete" tableValues="1 1 1 1 1 1 1 1 1 1 1 1 1 1 1 1 1 1 1 1 1 1 1 1 1 1 1 1 1 1 1 1 1 1 1 1 1 1 1 1 1 1 1 1 1 1 1 1 1 1 1 0 0 0 0 0 0 0 0 0 0 0 0 0 0 0 0 0 0 0 0 0 0 0 0 0 0 0 0 0 0 0 0 0 0 0 0 0 0 0 0 0 0 0 0 0 0 0 0 0 "/>
</feComponentTransfer>
<feComposite operator="in" in2="shape" in="coloredNoise1" result="noise1Clipped" />
<feFlood flood-color="rgba(0, 0, 0, 0.25)" result="color1Flood" />
<feComposite operator="in" in2="noise1Clipped" in="color1Flood" result="color1" />
<feMerge result="effect1_noise_973_14409">
<feMergeNode in="shape" />
<feMergeNode in="color1" />
</feMerge>
</filter>
<clipPath id="clip0_973_14409">
<rect width="1440" height="4568" fill="white"/>
</clipPath>
</defs>
</svg>
