<svg width="1662" height="1736" viewBox="0 0 1662 1736" fill="none" xmlns="http://www.w3.org/2000/svg">
<rect width="1662" height="1736" fill="black"/>
<path d="M344.372 498.574C261.845 538.376 269.985 619.902 290.309 657.309L291.231 658.7C385.173 779.995 589.812 1032.51 593.136 1035.74C616.099 1058.09 670.659 1091.62 741.442 1046.16C797.239 1008.34 794.917 930.684 771.247 893.595C683.774 784.664 507.562 565.767 503.83 558.957C495.984 544.641 494.767 543.631 498.934 532.913C502.215 524.473 512.343 521.853 516.45 520.947L626.969 504.366C636.738 503.157 651.077 500.327 659.934 503.77C664.604 505.586 672.88 515.062 677.351 519.661C693.801 539.468 731.035 587.203 762.286 621.347C803.405 666.272 934.013 663.968 948.748 547.385C958.988 466.373 883.606 416.915 840.259 419.375C708.694 439.039 383.327 479.787 344.372 498.574Z" fill="white" stroke="white"/>
<path d="M1317.26 1238.35C1399.79 1198.55 1391.65 1117.02 1371.33 1079.62L1370.41 1078.23C1276.46 956.931 1071.82 704.418 1068.5 701.183C1045.54 678.835 990.978 645.308 920.195 690.771C864.398 728.589 866.72 806.241 890.39 843.33C977.863 952.262 1154.07 1171.16 1157.81 1177.97C1165.65 1192.29 1166.87 1193.29 1162.7 1204.01C1159.42 1212.45 1149.29 1215.07 1145.19 1215.98L1034.67 1232.56C1024.9 1233.77 1010.56 1236.6 1001.7 1233.16C997.033 1231.34 988.757 1221.86 984.286 1217.26C967.836 1197.46 930.602 1149.72 899.35 1115.58C858.232 1070.65 727.624 1072.96 712.888 1189.54C702.649 1270.55 778.03 1320.01 821.377 1317.55C952.943 1297.89 1278.31 1257.14 1317.26 1238.35Z" fill="white" stroke="white"/>
</svg>
